<?xml version="1.0" encoding="UTF-8"?>
<svg viewBox="0 0 240 240" xmlns="http://www.w3.org/2000/svg" width="512" height="512">
    <defs>
      <linearGradient id="mFront" x1="0" y1="0" x2="0" y2="1">
        <stop offset="0%" stop-color="#FFE0A0"/>
        <stop offset="22%" stop-color="#F2B85A"/>
        <stop offset="58%" stop-color="#C8841A"/>
        <stop offset="100%" stop-color="#5A3008"/>
      </linearGradient>
      <linearGradient id="mSide" x1="0" y1="0" x2="1" y2="0">
        <stop offset="0%" stop-color="#8A4A0A"/>
        <stop offset="100%" stop-color="#2A1500"/>
      </linearGradient>
      <linearGradient id="mTop" x1="0" y1="0" x2="0" y2="1">
        <stop offset="0%" stop-color="#FFF5D0" stop-opacity="0.9"/>
        <stop offset="100%" stop-color="#FFE0A0" stop-opacity="0"/>
      </linearGradient>
      <linearGradient id="mHi" x1="0" y1="0" x2="1" y2="0">
        <stop offset="0%" stop-color="#FFFFFF" stop-opacity="0.65"/>
        <stop offset="100%" stop-color="#FFFFFF" stop-opacity="0"/>
      </linearGradient>
      <radialGradient id="mDot" cx="0.35" cy="0.3" r="0.85">
        <stop offset="0%" stop-color="#FFE5B0"/>
        <stop offset="40%" stop-color="#E8A040"/>
        <stop offset="80%" stop-color="#8A4A0A"/>
        <stop offset="100%" stop-color="#3A1F00"/>
      </radialGradient>
    </defs>
    <ellipse cx="120" cy="222" rx="72" ry="6" fill="#000" opacity="0.45"/>
    <g transform="translate(-26, -16)" opacity="0.55">
      <rect x="78" y="60" width="58" height="148" rx="11" fill="none" stroke="#9A8A6E" stroke-width="1.8"/>
      <circle cx="107" cy="34" r="13.5" fill="none" stroke="#9A8A6E" stroke-width="1.8"/>
    </g>
    <rect x="118" y="68" width="58" height="148" rx="11" fill="url(#mSide)"/>
    <rect x="108" y="58" width="58" height="148" rx="11" fill="url(#mFront)"/>
    <rect x="108" y="58" width="58" height="11" rx="11" fill="url(#mTop)"/>
    <rect x="111" y="64" width="6" height="138" rx="3" fill="url(#mHi)"/>
    <circle cx="137" cy="28" r="14" fill="#3A1F00"/>
    <circle cx="134" cy="25" r="14" fill="url(#mDot)"/>
    <circle cx="129" cy="20" r="5" fill="#FFFFFF" opacity="0.5"/>
  </svg>